<?xml version="1.0" standalone="no"?>
<!DOCTYPE svg PUBLIC "-//W3C//DTD SVG 20010904//EN"
 "http://www.w3.org/TR/2001/REC-SVG-20010904/DTD/svg10.dtd">
<svg version="1.0" xmlns="http://www.w3.org/2000/svg"
 width="100.000000pt" height="100.000000pt" viewBox="0 0 100.000000 100.000000"
 preserveAspectRatio="xMidYMid meet">
<metadata>
Created by potrace 1.11, written by Peter Selinger 2001-2013
</metadata>
<g transform="translate(0.000000,100.000000) scale(0.100000,-0.100000)"
fill="#000000" stroke="none">
<path d="M0 500 l0 -500 500 0 500 0 0 500 0 500 -500 0 -500 0 0 -500z m528
360 c14 0 14 -2 3 -9 -8 -5 -11 -16 -8 -24 4 -10 -2 -14 -24 -13 -21 1 -29 6
-29 19 0 9 -6 17 -12 18 -7 0 -3 4 10 9 12 5 22 15 22 22 0 8 5 6 11 -4 5 -10
18 -18 27 -18z m-198 -30 c0 -5 10 -10 22 -10 17 0 19 -3 10 -12 -7 -7 -12
-19 -12 -27 0 -11 -10 -16 -30 -16 -20 0 -30 5 -30 16 0 8 -5 20 -12 27 -9 9
-7 12 10 12 12 0 22 5 22 10 0 6 5 10 10 10 6 0 10 -4 10 -10z m-130 -130 c0
-5 10 -10 22 -10 17 0 19 -3 10 -12 -7 -7 -12 -19 -12 -27 0 -11 -10 -16 -30
-16 -20 0 -30 5 -30 16 0 8 -5 20 -12 27 -9 9 -7 12 10 12 12 0 22 5 22 10 0
6 5 10 10 10 6 0 10 -4 10 -10z m378 -93 c31 -15 52 -57 52 -102 l0 -35 -92 0
-92 0 21 -22 c24 -23 75 -27 99 -7 12 10 19 8 36 -9 l21 -21 -34 -20 c-61 -38
-156 -22 -193 31 -10 14 -16 44 -16 75 0 43 5 58 28 84 40 44 110 55 170 26z
m-418 -82 c0 -9 10 -15 23 -16 12 0 16 -3 10 -6 -7 -2 -13 -16 -13 -30 0 -21
-2 -24 -15 -13 -12 10 -18 10 -30 0 -13 -11 -15 -8 -15 13 0 14 -6 28 -12 30
-7 3 -3 6 10 6 12 1 22 7 22 16 0 8 5 15 10 15 6 0 10 -7 10 -15z m44 -181 c3
-9 11 -12 18 -8 8 5 9 2 5 -10 -4 -10 -7 -27 -7 -38 0 -16 -3 -18 -14 -9 -7 6
-21 9 -30 5 -10 -4 -16 -1 -16 9 0 9 -3 23 -7 33 -4 12 -3 15 5 10 7 -4 15 -1
18 8 3 9 10 16 14 16 4 0 11 -7 14 -16z m126 -124 c0 -5 7 -10 15 -10 8 0 15
-4 15 -10 0 -5 -5 -10 -11 -10 -6 0 -8 -8 -5 -17 5 -15 0 -18 -24 -18 -20 0
-30 5 -30 16 0 8 -5 20 -12 27 -9 9 -7 12 10 12 12 0 22 5 22 10 0 6 5 10 10
10 6 0 10 -4 10 -10z"/>
<path d="M467 552 c-26 -28 -21 -32 38 -32 38 0 55 4 55 13 0 37 -65 50 -93
19z"/>
</g>
</svg>
